<svg width="764" height="156" viewBox="0 0 764 156" fill="none" xmlns="http://www.w3.org/2000/svg">
<mask id="path-1-inside-1_896_358" fill="white">
<path fill-rule="evenodd" clip-rule="evenodd" d="M27.0345 84.502C21.7656 22.8176 106.448 0.539124 132.217 56.8305C137.16 67.6283 138.312 78.8669 136.446 89.3438C133.493 83.5347 129.272 78.2508 124.002 73.7732C118.524 69.1186 112.02 65.4263 104.863 62.9073C97.7052 60.3882 90.0338 59.0917 82.2866 59.0917C74.5394 59.0917 66.868 60.3882 59.7106 62.9073C52.5531 65.4263 46.0496 69.1186 40.5715 73.7732C35.0952 78.4263 30.7508 83.95 27.7862 90.0291C27.4465 88.2181 27.1944 86.3742 27.0345 84.502ZM35.3156 109.218L82.2866 109.218H128.735C119.166 124.408 102.315 135 82.0297 135C62.4698 135 45.1311 124.783 35.3156 109.218Z"/>
</mask>
<path fill-rule="evenodd" clip-rule="evenodd" d="M27.0345 84.502C21.7656 22.8176 106.448 0.539124 132.217 56.8305C137.16 67.6283 138.312 78.8669 136.446 89.3438C133.493 83.5347 129.272 78.2508 124.002 73.7732C118.524 69.1186 112.02 65.4263 104.863 62.9073C97.7052 60.3882 90.0338 59.0917 82.2866 59.0917C74.5394 59.0917 66.868 60.3882 59.7106 62.9073C52.5531 65.4263 46.0496 69.1186 40.5715 73.7732C35.0952 78.4263 30.7508 83.95 27.7862 90.0291C27.4465 88.2181 27.1944 86.3742 27.0345 84.502ZM35.3156 109.218L82.2866 109.218H128.735C119.166 124.408 102.315 135 82.0297 135C62.4698 135 45.1311 124.783 35.3156 109.218Z" fill="white"/>
<path d="M132.217 56.8305L131.671 57.0803L132.217 56.8305ZM27.0345 84.502L26.4367 84.553L27.0345 84.502ZM136.446 89.3438L137.037 89.4491L136.722 91.2123L135.911 89.6157L136.446 89.3438ZM124.002 73.7732L124.39 73.316L124.002 73.7732ZM104.863 62.9073L105.062 62.3413L104.863 62.9073ZM59.7106 62.9073L59.9097 63.4732L59.7106 62.9073ZM40.5715 73.7732L40.183 73.316L40.5715 73.7732ZM27.7862 90.0291L28.3255 90.2921L27.5307 91.9219L27.1965 90.1397L27.7862 90.0291ZM35.3156 109.218L34.8081 109.538L34.2279 108.618H35.3156V109.218ZM128.735 109.218V108.618H129.822L129.243 109.537L128.735 109.218ZM131.671 57.0803C106.183 1.40078 22.4207 23.437 27.6323 84.4509L26.4367 84.553C21.1105 22.1981 106.714 -0.322527 132.762 56.5808L131.671 57.0803ZM135.855 89.2386C137.7 78.8784 136.562 67.7639 131.671 57.0803L132.762 56.5808C137.757 67.4927 138.923 78.8553 137.037 89.4491L135.855 89.2386ZM124.39 73.316C129.717 77.8419 133.99 83.1877 136.981 89.072L135.911 89.6157C132.996 83.8816 128.826 78.6597 123.613 74.2305L124.39 73.316ZM105.062 62.3413C112.285 64.8834 118.853 68.6112 124.39 73.316L123.613 74.2305C118.194 69.6259 111.756 65.9693 104.663 63.4732L105.062 62.3413ZM82.2866 58.4916C90.1002 58.4916 97.839 59.7992 105.062 62.3413L104.663 63.4732C97.5713 60.9772 89.9674 59.6917 82.2866 59.6917V58.4916ZM59.5114 62.3413C66.7342 59.7992 74.473 58.4916 82.2866 58.4916V59.6917C74.6058 59.6917 67.0019 60.9772 59.9097 63.4732L59.5114 62.3413ZM40.183 73.316C45.7201 68.6112 52.2885 64.8834 59.5114 62.3413L59.9097 63.4732C52.8176 65.9693 46.3791 69.6259 40.96 74.2305L40.183 73.316ZM27.2469 89.7661C30.2501 83.6079 34.6476 78.0193 40.183 73.316L40.96 74.2305C35.5429 78.8333 31.2516 84.292 28.3255 90.2921L27.2469 89.7661ZM27.6323 84.4509C27.7905 86.3032 28.04 88.1271 28.3759 89.9185L27.1965 90.1397C26.8531 88.309 26.5983 86.4453 26.4367 84.553L27.6323 84.4509ZM82.2866 109.818L35.3156 109.818V108.618L82.2866 108.618V109.818ZM128.735 109.818H82.2866V108.618H128.735V109.818ZM82.0297 134.4C102.095 134.4 118.76 123.926 128.228 108.898L129.243 109.537C119.571 124.89 102.535 135.6 82.0297 135.6V134.4ZM35.8232 108.898C45.5326 124.295 62.683 134.4 82.0297 134.4V135.6C62.2566 135.6 44.7295 125.271 34.8081 109.538L35.8232 108.898Z" fill="white" mask="url(#path-1-inside-1_896_358)"/>
<path d="M168.227 33.9091H185.273L214.909 106.273H216L245.636 33.9091H262.682V127H249.318V59.6364H248.455L221 126.864H209.909L182.455 59.5909H181.591V127H168.227V33.9091ZM311.42 128.409C304.875 128.409 299.163 126.909 294.284 123.909C289.405 120.909 285.617 116.712 282.92 111.318C280.223 105.924 278.875 99.6212 278.875 92.4091C278.875 85.1667 280.223 78.8333 282.92 73.4091C285.617 67.9848 289.405 63.7727 294.284 60.7727C299.163 57.7727 304.875 56.2727 311.42 56.2727C317.966 56.2727 323.678 57.7727 328.557 60.7727C333.436 63.7727 337.223 67.9848 339.92 73.4091C342.617 78.8333 343.966 85.1667 343.966 92.4091C343.966 99.6212 342.617 105.924 339.92 111.318C337.223 116.712 333.436 120.909 328.557 123.909C323.678 126.909 317.966 128.409 311.42 128.409ZM311.466 117C315.708 117 319.223 115.879 322.011 113.636C324.799 111.394 326.86 108.409 328.193 104.682C329.557 100.955 330.239 96.8485 330.239 92.3636C330.239 87.9091 329.557 83.8182 328.193 80.0909C326.86 76.3333 324.799 73.3182 322.011 71.0455C319.223 68.7727 315.708 67.6364 311.466 67.6364C307.193 67.6364 303.648 68.7727 300.83 71.0455C298.042 73.3182 295.966 76.3333 294.602 80.0909C293.269 83.8182 292.602 87.9091 292.602 92.3636C292.602 96.8485 293.269 100.955 294.602 104.682C295.966 108.409 298.042 111.394 300.83 113.636C303.648 115.879 307.193 117 311.466 117ZM372.727 85.5455V127H359.136V57.1818H372.182V68.5455H373.045C374.652 64.8485 377.167 61.8788 380.591 59.6364C384.045 57.3939 388.394 56.2727 393.636 56.2727C398.394 56.2727 402.561 57.2727 406.136 59.2727C409.712 61.2424 412.485 64.1818 414.455 68.0909C416.424 72 417.409 76.8333 417.409 82.5909V127H403.818V84.2273C403.818 79.1667 402.5 75.2121 399.864 72.3636C397.227 69.4848 393.606 68.0455 389 68.0455C385.848 68.0455 383.045 68.7273 380.591 70.0909C378.167 71.4545 376.242 73.4545 374.818 76.0909C373.424 78.697 372.727 81.8485 372.727 85.5455ZM455.955 128.545C451.53 128.545 447.53 127.727 443.955 126.091C440.379 124.424 437.545 122.015 435.455 118.864C433.394 115.712 432.364 111.848 432.364 107.273C432.364 103.333 433.121 100.091 434.636 97.5455C436.152 95 438.197 92.9848 440.773 91.5C443.348 90.0152 446.227 88.8939 449.409 88.1364C452.591 87.3788 455.833 86.803 459.136 86.4091C463.318 85.9242 466.712 85.5303 469.318 85.2273C471.924 84.8939 473.818 84.3636 475 83.6364C476.182 82.9091 476.773 81.7273 476.773 80.0909V79.7727C476.773 75.803 475.652 72.7273 473.409 70.5455C471.197 68.3636 467.894 67.2727 463.5 67.2727C458.924 67.2727 455.318 68.2879 452.682 70.3182C450.076 72.3182 448.273 74.5455 447.273 77L434.5 74.0909C436.015 69.8485 438.227 66.4242 441.136 63.8182C444.076 61.1818 447.455 59.2727 451.273 58.0909C455.091 56.8788 459.106 56.2727 463.318 56.2727C466.106 56.2727 469.061 56.6061 472.182 57.2727C475.333 57.9091 478.273 59.0909 481 60.8182C483.758 62.5455 486.015 65.0151 487.773 68.2273C489.53 71.4091 490.409 75.5455 490.409 80.6364V127H477.136V117.455H476.591C475.712 119.212 474.394 120.939 472.636 122.636C470.879 124.333 468.621 125.742 465.864 126.864C463.106 127.985 459.803 128.545 455.955 128.545ZM458.909 117.636C462.667 117.636 465.879 116.894 468.545 115.409C471.242 113.924 473.288 111.985 474.682 109.591C476.106 107.167 476.818 104.576 476.818 101.818V92.8182C476.333 93.303 475.394 93.7576 474 94.1818C472.636 94.5758 471.076 94.9242 469.318 95.2273C467.561 95.5 465.848 95.7576 464.182 96C462.515 96.2121 461.121 96.3939 460 96.5455C457.364 96.8788 454.955 97.4394 452.773 98.2273C450.621 99.0152 448.894 100.152 447.591 101.636C446.318 103.091 445.682 105.03 445.682 107.455C445.682 110.818 446.924 113.364 449.409 115.091C451.894 116.788 455.061 117.636 458.909 117.636ZM534.648 128.364C529.011 128.364 523.981 126.924 519.557 124.045C515.163 121.136 511.708 117 509.193 111.636C506.708 106.242 505.466 99.7727 505.466 92.2273C505.466 84.6818 506.723 78.2273 509.239 72.8636C511.784 67.5 515.269 63.3939 519.693 60.5455C524.117 57.697 529.133 56.2727 534.739 56.2727C539.072 56.2727 542.557 57 545.193 58.4545C547.86 59.8788 549.92 61.5455 551.375 63.4545C552.86 65.3636 554.011 67.0455 554.83 68.5H555.648V33.9091H569.239V127H555.966V116.136H554.83C554.011 117.621 552.83 119.318 551.284 121.227C549.769 123.136 547.678 124.803 545.011 126.227C542.345 127.652 538.89 128.364 534.648 128.364ZM537.648 116.773C541.557 116.773 544.86 115.742 547.557 113.682C550.284 111.591 552.345 108.697 553.739 105C555.163 101.303 555.875 97 555.875 92.0909C555.875 87.2424 555.178 83 553.784 79.3636C552.39 75.7273 550.345 72.8939 547.648 70.8636C544.951 68.8333 541.617 67.8182 537.648 67.8182C533.557 67.8182 530.148 68.8788 527.42 71C524.693 73.1212 522.633 76.0151 521.239 79.6818C519.875 83.3485 519.193 87.4848 519.193 92.0909C519.193 96.7576 519.89 100.955 521.284 104.682C522.678 108.409 524.739 111.364 527.466 113.545C530.223 115.697 533.617 116.773 537.648 116.773ZM618.727 128.409C611.848 128.409 605.924 126.939 600.955 124C596.015 121.03 592.197 116.864 589.5 111.5C586.833 106.106 585.5 99.7879 585.5 92.5455C585.5 85.3939 586.833 79.0909 589.5 73.6364C592.197 68.1818 595.955 63.9242 600.773 60.8636C605.621 57.803 611.288 56.2727 617.773 56.2727C621.712 56.2727 625.53 56.9242 629.227 58.2273C632.924 59.5303 636.242 61.5758 639.182 64.3636C642.121 67.1515 644.439 70.7727 646.136 75.2273C647.833 79.6515 648.682 85.0303 648.682 91.3636V96.1818H593.182V86H635.364C635.364 82.4242 634.636 79.2576 633.182 76.5C631.727 73.7121 629.682 71.5151 627.045 69.9091C624.439 68.303 621.379 67.5 617.864 67.5C614.045 67.5 610.712 68.4394 607.864 70.3182C605.045 72.1667 602.864 74.5909 601.318 77.5909C599.803 80.5606 599.045 83.7879 599.045 87.2727V95.2273C599.045 99.8939 599.864 103.864 601.5 107.136C603.167 110.409 605.485 112.909 608.455 114.636C611.424 116.333 614.894 117.182 618.864 117.182C621.439 117.182 623.788 116.818 625.909 116.091C628.03 115.333 629.864 114.212 631.409 112.727C632.955 111.242 634.136 109.409 634.955 107.227L647.818 109.545C646.788 113.333 644.939 116.652 642.273 119.5C639.636 122.318 636.318 124.515 632.318 126.091C628.348 127.636 623.818 128.409 618.727 128.409ZM672.864 57.1818L688.273 84.3636L703.818 57.1818H718.682L696.909 92.0909L718.864 127H704L688.273 100.909L672.591 127H657.682L679.409 92.0909L657.955 57.1818H672.864Z" fill="white"/>
</svg>
