<svg width="110" height="111" viewBox="0 0 110 111" fill="none" xmlns="http://www.w3.org/2000/svg">
<path fill-rule="evenodd" clip-rule="evenodd" d="M0.254493 59.9563C-5.1863 -1.02682 78.1432 -23.8643 104.554 31.3718C109.475 41.6641 110.89 52.4112 109.477 62.5366C106.597 57.437 102.72 52.7821 98.0017 48.7734C92.5236 44.1188 86.0202 40.4266 78.8627 37.9075C71.7052 35.3884 64.0338 34.0919 56.2866 34.0919C48.5394 34.0919 40.868 35.3884 33.7105 37.9075C26.5531 40.4265 20.0496 44.1188 14.5715 48.7734C9.09338 53.4281 4.74791 58.9539 1.78318 65.0355C1.57914 65.454 1.38191 65.8747 1.19153 66.2972C0.761443 64.2262 0.446677 62.1104 0.254493 59.9563ZM8.39481 84.2179L56.2866 84.2179L101.562 84.2179C92.0598 99.4031 75.2629 110.019 54.9829 110.019C35.4595 110.019 18.1523 99.7925 8.39481 84.2179Z" fill="#8133FF"/>
</svg>
