<svg width="384" height="307" viewBox="0 0 384 307" fill="none" xmlns="http://www.w3.org/2000/svg">
<g filter="url(#filter0_d_791_387)">
<path d="M180.463 45.6293L166.467 160.856L120.92 147.407L180.463 45.6293Z" fill="url(#paint0_linear_791_387)"/>
<path d="M180.463 45.6293L213.904 162.82L166.467 160.856L180.463 45.6293Z" fill="url(#paint1_linear_791_387)"/>
<path d="M180.463 45.6293L257.673 148.841L213.904 162.82L180.463 45.6293Z" fill="url(#paint2_linear_791_387)"/>
<path d="M257.67 148.843L208.04 242L213.905 162.821L257.67 148.843Z" fill="url(#paint3_linear_791_387)"/>
<path d="M208.06 242.067L134.038 192.5L166.538 160.5L208.06 242.067Z" fill="url(#paint4_linear_791_387)"/>
<path d="M208.041 242L166.471 160.857L213.904 162.823L208.041 242Z" fill="url(#paint5_linear_791_387)"/>
<path d="M166.472 160.86L134.426 192.275L120.918 147.406L166.472 160.86Z" fill="url(#paint6_linear_791_387)"/>
</g>
<defs>
<filter id="filter0_d_791_387" x="97.918" y="42.6294" width="182.755" height="242.438" filterUnits="userSpaceOnUse" color-interpolation-filters="sRGB">
<feFlood flood-opacity="0" result="BackgroundImageFix"/>
<feColorMatrix in="SourceAlpha" type="matrix" values="0 0 0 0 0 0 0 0 0 0 0 0 0 0 0 0 0 0 127 0" result="hardAlpha"/>
<feOffset dy="20"/>
<feGaussianBlur stdDeviation="11.5"/>
<feComposite in2="hardAlpha" operator="out"/>
<feColorMatrix type="matrix" values="0 0 0 0 1 0 0 0 0 1 0 0 0 0 1 0 0 0 0.25 0"/>
<feBlend mode="normal" in2="BackgroundImageFix" result="effect1_dropShadow_791_387"/>
<feBlend mode="normal" in="SourceGraphic" in2="effect1_dropShadow_791_387" result="shape"/>
</filter>
<linearGradient id="paint0_linear_791_387" x1="164.789" y1="88.585" x2="141.145" y2="213.422" gradientUnits="userSpaceOnUse">
<stop offset="0.22078" stop-color="#8C63EE"/>
<stop offset="0.813447" stop-color="white"/>
<stop offset="1" stop-color="#8C63EE"/>
</linearGradient>
<linearGradient id="paint1_linear_791_387" x1="179.46" y1="153.105" x2="178.261" y2="33.7677" gradientUnits="userSpaceOnUse">
<stop stop-color="#8C63EE"/>
<stop offset="1" stop-color="white"/>
</linearGradient>
<linearGradient id="paint2_linear_791_387" x1="223.34" y1="62.7214" x2="213.53" y2="163.933" gradientUnits="userSpaceOnUse">
<stop offset="0.388035" stop-color="#8C63EE"/>
<stop offset="1" stop-color="white"/>
</linearGradient>
<linearGradient id="paint3_linear_791_387" x1="246.898" y1="159.195" x2="175.734" y2="162.732" gradientUnits="userSpaceOnUse">
<stop stop-color="#8C63EE"/>
<stop offset="1" stop-color="white"/>
</linearGradient>
<linearGradient id="paint4_linear_791_387" x1="207.04" y1="242" x2="117.048" y2="166.756" gradientUnits="userSpaceOnUse">
<stop offset="0.195" stop-color="#8C63EE"/>
<stop offset="1" stop-color="white"/>
</linearGradient>
<linearGradient id="paint5_linear_791_387" x1="163.791" y1="197.541" x2="258.822" y2="131.428" gradientUnits="userSpaceOnUse">
<stop offset="0.193643" stop-color="#8C63EE"/>
<stop offset="0.794347" stop-color="white"/>
</linearGradient>
<linearGradient id="paint6_linear_791_387" x1="106.42" y1="166.273" x2="178.328" y2="161.626" gradientUnits="userSpaceOnUse">
<stop offset="0.201632" stop-color="#8C63EE"/>
<stop offset="1" stop-color="white"/>
</linearGradient>
</defs>
</svg>
