<svg width="699" height="153" viewBox="0 0 699 153" fill="none" xmlns="http://www.w3.org/2000/svg">
<path fill-rule="evenodd" clip-rule="evenodd" d="M0.355811 72.7097C-5.08498 11.7266 78.2445 -11.1109 104.655 44.1252C109.576 54.4175 110.991 65.1646 109.578 75.29C106.699 70.1905 102.821 65.5356 98.1031 61.5268C92.625 56.8722 86.1215 53.18 78.964 50.6609C71.8065 48.1418 64.1352 46.8453 56.3879 46.8453C48.6407 46.8453 40.9694 48.1418 33.8119 50.6609C26.6544 53.18 20.1509 56.8722 14.6728 61.5268C9.1947 66.1815 4.84923 71.7073 1.8845 77.7889C1.68046 78.2074 1.48323 78.6281 1.29285 79.0506C0.862762 76.9796 0.547996 74.8638 0.355811 72.7097ZM8.49613 96.9713L56.3879 96.9713L101.664 96.9713C92.1611 112.157 75.3642 122.773 55.0842 122.773C35.5609 122.773 18.2536 112.546 8.49613 96.9713Z" fill="#8133FF"/>
<path d="M143.344 22.0252H160.39L190.026 94.3888H191.117L220.753 22.0252H237.799V115.116H224.435V47.7524H223.571L196.117 114.98H185.026L157.571 47.707H156.708V115.116H143.344V22.0252ZM286.537 116.525C279.992 116.525 274.28 115.025 269.401 112.025C264.522 109.025 260.734 104.828 258.037 99.4343C255.34 94.0403 253.992 87.7373 253.992 80.5252C253.992 73.2828 255.34 66.9494 258.037 61.5252C260.734 56.1009 264.522 51.8888 269.401 48.8888C274.28 45.8888 279.992 44.3888 286.537 44.3888C293.083 44.3888 298.795 45.8888 303.674 48.8888C308.553 51.8888 312.34 56.1009 315.037 61.5252C317.734 66.9494 319.083 73.2828 319.083 80.5252C319.083 87.7373 317.734 94.0403 315.037 99.4343C312.34 104.828 308.553 109.025 303.674 112.025C298.795 115.025 293.083 116.525 286.537 116.525ZM286.583 105.116C290.825 105.116 294.34 103.995 297.128 101.752C299.916 99.51 301.977 96.5252 303.31 92.7979C304.674 89.0706 305.356 84.9646 305.356 80.4797C305.356 76.0252 304.674 71.9343 303.31 68.207C301.977 64.4494 299.916 61.4343 297.128 59.1615C294.34 56.8888 290.825 55.7524 286.583 55.7524C282.31 55.7524 278.765 56.8888 275.946 59.1615C273.159 61.4343 271.083 64.4494 269.719 68.207C268.386 71.9343 267.719 76.0252 267.719 80.4797C267.719 84.9646 268.386 89.0706 269.719 92.7979C271.083 96.5252 273.159 99.51 275.946 101.752C278.765 103.995 282.31 105.116 286.583 105.116ZM347.844 73.6615V115.116H334.253V45.2979H347.299V56.6615H348.162C349.768 52.9646 352.284 49.9949 355.708 47.7524C359.162 45.51 363.511 44.3888 368.753 44.3888C373.511 44.3888 377.678 45.3888 381.253 47.3888C384.829 49.3585 387.602 52.2979 389.571 56.207C391.541 60.1161 392.526 64.9494 392.526 70.707V115.116H378.935V72.3434C378.935 67.2828 377.617 63.3282 374.981 60.4797C372.344 57.6009 368.723 56.1615 364.117 56.1615C360.965 56.1615 358.162 56.8434 355.708 58.207C353.284 59.5706 351.359 61.5706 349.935 64.207C348.541 66.8131 347.844 69.9646 347.844 73.6615ZM431.071 116.662C426.647 116.662 422.647 115.843 419.071 114.207C415.496 112.54 412.662 110.131 410.571 106.98C408.511 103.828 407.481 99.9646 407.481 95.3888C407.481 91.4494 408.238 88.207 409.753 85.6615C411.268 83.1161 413.314 81.1009 415.89 79.6161C418.465 78.1312 421.344 77.01 424.526 76.2525C427.708 75.4949 430.95 74.9191 434.253 74.5252C438.435 74.0403 441.829 73.6464 444.435 73.3434C447.041 73.01 448.935 72.4797 450.117 71.7525C451.299 71.0252 451.89 69.8434 451.89 68.207V67.8888C451.89 63.9191 450.768 60.8434 448.526 58.6615C446.314 56.4797 443.011 55.3888 438.617 55.3888C434.041 55.3888 430.435 56.404 427.799 58.4343C425.193 60.4343 423.39 62.6615 422.39 65.1161L409.617 62.207C411.132 57.9646 413.344 54.5403 416.253 51.9343C419.193 49.2979 422.571 47.3888 426.39 46.207C430.208 44.9949 434.223 44.3888 438.435 44.3888C441.223 44.3888 444.178 44.7222 447.299 45.3888C450.45 46.0252 453.39 47.207 456.117 48.9343C458.875 50.6615 461.132 53.1312 462.89 56.3434C464.647 59.5252 465.526 63.6615 465.526 68.7525V115.116H452.253V105.571H451.708C450.829 107.328 449.511 109.055 447.753 110.752C445.996 112.449 443.738 113.859 440.981 114.98C438.223 116.101 434.92 116.662 431.071 116.662ZM434.026 105.752C437.784 105.752 440.996 105.01 443.662 103.525C446.359 102.04 448.405 100.101 449.799 97.707C451.223 95.2828 451.935 92.6918 451.935 89.9343V80.9343C451.45 81.4191 450.511 81.8737 449.117 82.2979C447.753 82.6918 446.193 83.0403 444.435 83.3434C442.678 83.6161 440.965 83.8737 439.299 84.1161C437.632 84.3282 436.238 84.51 435.117 84.6615C432.481 84.9949 430.071 85.5555 427.89 86.3434C425.738 87.1312 424.011 88.2676 422.708 89.7525C421.435 91.207 420.799 93.1464 420.799 95.5706C420.799 98.9343 422.041 101.48 424.526 103.207C427.011 104.904 430.178 105.752 434.026 105.752ZM509.765 116.48C504.128 116.48 499.098 115.04 494.674 112.162C490.28 109.252 486.825 105.116 484.31 99.7525C481.825 94.3585 480.583 87.8888 480.583 80.3434C480.583 72.7979 481.84 66.3434 484.356 60.9797C486.901 55.6161 490.386 51.51 494.81 48.6615C499.234 45.8131 504.25 44.3888 509.856 44.3888C514.189 44.3888 517.674 45.1161 520.31 46.5706C522.977 47.9949 525.037 49.6615 526.492 51.5706C527.977 53.4797 529.128 55.1615 529.946 56.6161H530.765V22.0252H544.356V115.116H531.083V104.252H529.946C529.128 105.737 527.946 107.434 526.401 109.343C524.886 111.252 522.795 112.919 520.128 114.343C517.462 115.768 514.007 116.48 509.765 116.48ZM512.765 104.889C516.674 104.889 519.977 103.859 522.674 101.798C525.401 99.707 527.462 96.8131 528.856 93.1161C530.28 89.4191 530.992 85.1161 530.992 80.207C530.992 75.3585 530.295 71.1161 528.901 67.4797C527.507 63.8434 525.462 61.01 522.765 58.9797C520.068 56.9494 516.734 55.9343 512.765 55.9343C508.674 55.9343 505.265 56.9949 502.537 59.1161C499.81 61.2373 497.75 64.1312 496.356 67.7979C494.992 71.4646 494.31 75.6009 494.31 80.207C494.31 84.8737 495.007 89.0706 496.401 92.7979C497.795 96.5252 499.856 99.4797 502.583 101.662C505.34 103.813 508.734 104.889 512.765 104.889ZM593.844 116.525C586.965 116.525 581.041 115.055 576.071 112.116C571.132 109.146 567.314 104.98 564.617 99.6161C561.95 94.2221 560.617 87.904 560.617 80.6615C560.617 73.51 561.95 67.207 564.617 61.7524C567.314 56.2979 571.071 52.0403 575.89 48.9797C580.738 45.9191 586.405 44.3888 592.89 44.3888C596.829 44.3888 600.647 45.0403 604.344 46.3434C608.041 47.6464 611.359 49.6918 614.299 52.4797C617.238 55.2676 619.556 58.8888 621.253 63.3434C622.95 67.7676 623.799 73.1464 623.799 79.4797V84.2979H568.299V74.1161H610.481C610.481 70.5403 609.753 67.3737 608.299 64.6161C606.844 61.8282 604.799 59.6312 602.162 58.0252C599.556 56.4191 596.496 55.6161 592.981 55.6161C589.162 55.6161 585.829 56.5555 582.981 58.4343C580.162 60.2828 577.981 62.707 576.435 65.707C574.92 68.6767 574.162 71.904 574.162 75.3888V83.3434C574.162 88.01 574.981 91.9797 576.617 95.2525C578.284 98.5252 580.602 101.025 583.571 102.752C586.541 104.449 590.011 105.298 593.981 105.298C596.556 105.298 598.905 104.934 601.026 104.207C603.147 103.449 604.981 102.328 606.526 100.843C608.071 99.3585 609.253 97.5252 610.071 95.3434L622.935 97.6615C621.905 101.449 620.056 104.768 617.39 107.616C614.753 110.434 611.435 112.631 607.435 114.207C603.465 115.752 598.935 116.525 593.844 116.525ZM647.981 45.2979L663.39 72.4797L678.935 45.2979H693.799L672.026 80.207L693.981 115.116H679.117L663.39 89.0252L647.708 115.116H632.799L654.526 80.207L633.071 45.2979H647.981Z" fill="white"/>
</svg>
